<svg version="1.1" id="Layer_1" xmlns="http://www.w3.org/2000/svg" xmlns:xlink="http://www.w3.org/1999/xlink" x="0px" y="0px"
	 width="100%" viewBox="0 0 512 512" enable-background="new 0 0 512 512" xml:space="preserve">
<path fill="#000000" opacity="1.000000" stroke="none" 
	d="
M287.000000,513.000000 
	C267.312439,513.000000 247.624878,513.000000 227.196686,512.756958 
	C225.531723,512.168335 224.625916,511.588379 223.680161,511.513580 
	C214.884445,510.817871 206.318680,508.820007 197.837326,506.610107 
	C149.970779,494.137878 109.588402,469.646820 77.965538,431.303375 
	C58.653248,407.886810 45.229763,381.476654 37.344341,352.123047 
	C31.707853,331.141113 31.080435,309.817566 31.697041,288.353180 
	C31.897530,281.373993 37.436508,275.475464 44.664608,274.779388 
	C48.674305,274.393250 49.774082,272.739288 49.656773,269.092926 
	C49.346390,259.445648 50.586952,249.894379 51.484768,240.306335 
	C53.414391,219.699341 57.888336,199.706177 64.813789,180.231247 
	C67.706810,172.095840 71.600418,168.989990 80.252213,168.693512 
	C83.726860,168.574448 85.448982,167.036316 86.273521,163.945419 
	C86.658371,162.502792 87.040970,161.058167 87.480606,159.631714 
	C97.617455,126.741493 114.883003,97.708710 135.959763,70.818886 
	C143.823593,60.786171 150.242920,59.559086 162.223953,64.540421 
	C165.139633,65.752670 168.020523,67.050552 170.952621,68.220818 
	C173.442642,69.214645 175.524200,69.281708 177.484238,66.683304 
	C187.010468,54.054455 197.825729,42.616547 209.628128,32.062122 
	C222.541245,20.514420 236.091385,9.865589 251.000000,1.000000 
	C254.692917,1.000000 258.385834,1.000000 262.848511,1.143151 
	C272.551392,6.460550 280.913452,12.487674 288.905609,18.972088 
	C304.901794,31.950514 320.300171,45.575737 332.776428,62.152828 
	C338.525604,69.791664 338.546844,69.769264 347.604004,66.069016 
	C348.987762,65.503677 350.413086,65.040077 351.796753,64.474464 
	C364.031342,59.473263 370.581726,61.085361 378.741425,71.568130 
	C400.356903,99.337517 417.670593,129.439041 427.675873,163.385757 
	C428.805817,167.219482 430.490448,168.818634 434.600281,168.726044 
	C441.037964,168.581070 445.675446,171.911850 448.228241,177.780594 
	C449.813965,181.426147 451.143463,185.208939 452.271362,189.023743 
	C460.024902,215.248138 464.316315,242.009735 464.334473,269.393280 
	C464.336761,272.843536 465.375061,274.366547 469.106812,274.769196 
	C476.785339,275.597626 482.150177,281.289917 482.303497,288.614075 
	C482.675751,306.396027 482.905762,324.199280 479.120117,341.729248 
	C468.282684,391.913330 442.375427,432.751160 402.182526,464.466766 
	C374.364655,486.417419 342.944214,500.907227 308.303467,508.567535 
	C301.215973,510.134827 293.795380,510.090302 287.000000,513.000000 
M117.414207,426.110840 
	C128.189102,437.385956 140.838013,446.238983 154.060318,454.325348 
	C158.813675,457.232391 159.813736,456.781464 162.497070,451.815247 
	C164.944839,447.285034 167.335312,442.703186 170.108414,438.372925 
	C184.423615,416.019409 202.701202,397.346680 223.581848,381.096375 
	C229.125809,376.781769 229.044769,376.619843 223.133163,372.686493 
	C197.721985,355.778839 170.808899,341.702484 142.285233,330.882599 
	C118.231712,321.758392 93.703583,314.149536 68.195877,310.025665 
	C64.248741,309.387573 63.261578,310.834930 63.425777,314.081085 
	C63.567535,316.883484 64.030983,319.670013 64.363792,322.462219 
	C66.222160,338.053497 70.222496,353.127625 76.496368,367.468445 
	C86.115883,389.456726 99.218391,409.148651 117.414207,426.110840 
M449.636566,322.436981 
	C449.962799,319.975159 450.381622,317.521271 450.594025,315.049652 
	C450.929016,311.151642 449.950012,308.960510 445.205139,310.183655 
	C440.578308,311.376373 435.703247,311.584656 431.047455,312.689728 
	C383.104553,324.069031 337.989655,342.276550 296.494720,369.029541 
	C292.864319,371.370148 288.551849,373.144501 286.083557,377.109192 
	C286.552765,377.741272 286.777252,378.223267 287.149597,378.519318 
	C300.558105,389.180939 313.548584,400.204773 324.803406,413.294495 
	C335.160065,425.339661 344.737671,437.796844 351.598297,452.146637 
	C353.667908,456.475494 355.941528,456.784149 359.748322,454.495087 
	C370.317535,448.139709 380.453918,441.163452 389.612000,432.922760 
	C422.396790,403.421875 443.444092,367.426208 449.636566,322.436981 
M138.176758,294.986267 
	C146.411118,298.093689 154.737289,300.983887 162.837875,304.407806 
	C166.440704,305.930664 168.458511,304.945160 170.314514,302.038452 
	C177.231705,291.205505 185.149750,281.172028 194.397888,272.224548 
	C196.390732,270.296478 196.594040,268.582306 195.030426,266.115692 
	C189.807617,257.876678 183.268890,250.742920 175.923309,244.523361 
	C152.390640,224.598053 124.853958,212.478821 95.425278,204.195526 
	C92.529160,203.380371 91.121841,204.029755 90.301567,206.963287 
	C88.468803,213.517776 87.033913,220.139969 85.734100,226.822708 
	C82.871719,241.539139 81.198853,256.343567 81.399368,271.337311 
	C81.492668,278.314087 82.868347,280.299744 88.485725,281.399994 
	C105.124710,284.658936 121.314926,289.541718 138.176758,294.986267 
M388.814697,214.448120 
	C372.724670,221.011459 357.538635,229.178894 343.775543,239.863586 
	C334.256714,247.253357 325.960510,255.786285 319.197083,265.808777 
	C317.514099,268.302673 317.382477,270.206665 319.653870,272.340912 
	C329.160431,281.273438 337.003296,291.570068 344.077759,302.479919 
	C345.734344,305.034668 347.517120,305.926971 350.722717,304.560242 
	C374.635437,294.365021 399.434814,286.971954 424.840271,281.540344 
	C431.117584,280.198273 432.430450,278.607513 432.572266,271.989441 
	C432.703888,265.848907 432.209930,259.728638 431.813751,253.590485 
	C430.803894,237.944382 427.799164,222.737579 423.834869,207.636963 
	C422.953247,204.278641 421.680542,203.281708 418.244202,204.284683 
	C408.505432,207.127075 398.838226,210.132431 388.814697,214.448120 
M271.875122,407.630707 
	C268.427734,405.029602 264.822632,402.609131 261.577606,399.776184 
	C258.379272,396.983948 255.843750,397.162048 252.464691,399.722900 
	C238.955002,409.961334 226.070892,420.824158 214.677414,433.455811 
	C205.943069,443.139343 198.245316,453.485565 192.201538,465.031311 
	C189.384354,470.413086 189.467224,470.542511 195.376190,472.436829 
	C223.478409,481.445984 252.253952,483.717285 281.470978,480.482391 
	C293.836914,479.113220 306.029083,476.535400 317.870209,472.608307 
	C324.393921,470.444733 324.778351,469.670471 321.405273,463.962952 
	C317.773499,457.817780 313.918671,451.768127 309.705536,446.010132 
	C299.139740,431.569916 285.967682,419.626007 271.875122,407.630707 
M326.855225,112.450493 
	C313.213440,120.375687 300.015900,128.897919 289.118439,140.036423 
	C289.139679,142.270508 290.509552,143.116653 291.606140,144.075562 
	C309.188263,159.450134 325.002075,176.395370 337.791229,196.025513 
	C341.494415,201.709595 341.914276,201.905136 347.526031,198.576035 
	C361.029266,190.565384 375.333252,184.332077 390.159637,179.255600 
	C397.628784,176.698212 397.658752,176.737198 395.703308,169.208633 
	C395.162140,167.125183 394.624847,165.026810 393.875671,163.013474 
	C385.535248,140.600296 374.214355,119.829666 359.858032,100.674042 
	C357.758606,97.872795 356.155487,97.757782 353.240234,98.974678 
	C344.316803,102.699593 336.048767,107.682686 326.855225,112.450493 
M120.593384,161.904160 
	C119.629707,164.899796 118.856255,167.974106 117.657288,170.872406 
	C115.906662,175.104340 117.264534,177.186340 121.528992,178.570312 
	C137.206223,183.658203 152.249191,190.218292 166.491287,198.582184 
	C172.078705,201.863480 172.499191,201.628983 175.980591,196.394791 
	C184.735535,183.231995 194.373825,170.788513 205.850327,159.847321 
	C211.623291,154.343613 216.812439,148.237946 223.137497,143.295456 
	C224.682755,142.087967 226.221313,140.584793 223.782303,138.447906 
	C204.623795,121.662560 182.960480,108.917854 159.813675,98.531517 
	C157.653076,97.562019 156.064621,97.873329 154.652115,99.851997 
	C140.998550,118.978027 128.965561,138.988602 120.593384,161.904160 
M285.048157,283.432892 
	C276.920624,277.131226 269.440430,270.029572 260.901978,264.219299 
	C257.930542,262.197296 255.748550,262.332153 252.920715,264.357880 
	C245.222031,269.872772 237.904236,275.828278 230.819839,282.104950 
	C219.469391,292.161255 208.984467,302.966949 200.375061,315.528351 
	C198.162247,318.756866 198.450882,320.557800 202.028152,322.491760 
	C219.426117,331.897491 236.428818,341.980347 252.460800,353.597534 
	C255.623703,355.889496 258.149017,356.099274 261.381653,353.746307 
	C276.991180,342.384552 293.616486,332.640106 310.443237,323.213287 
	C316.401367,319.875366 316.346039,319.526581 312.519531,313.920288 
	C304.875031,302.720154 295.115387,293.412476 285.048157,283.432892 
M216.904388,195.393311 
	C211.555069,202.369232 205.998459,209.171371 201.457321,216.763077 
	C199.454163,220.111877 199.573975,222.393555 202.323166,225.017197 
	C208.332565,230.752136 214.165695,236.673843 218.884857,243.560989 
	C221.039902,246.706039 222.872406,246.326996 225.737579,244.081284 
	C232.658920,238.656403 239.715195,233.357651 247.419662,229.041489 
	C253.887573,225.418091 260.403625,225.515457 266.824707,229.174698 
	C274.489380,233.542633 281.557251,238.815369 288.529907,244.167526 
	C291.600189,246.524246 293.482086,246.068420 295.420990,243.197815 
	C300.011658,236.401123 305.764282,230.626282 311.693878,225.046783 
	C314.525757,222.382141 314.597839,220.121201 312.574707,216.827438 
	C298.906647,194.575378 280.458160,176.751419 260.665100,160.130890 
	C258.033112,157.920746 255.478317,158.161469 253.080704,160.247513 
	C246.829407,165.686447 240.540924,171.093613 234.506912,176.768265 
	C228.455597,182.459198 222.697449,188.461441 216.904388,195.393311 
M268.181793,114.621300 
	C271.107849,112.179695 274.026764,109.729416 276.961334,107.298103 
	C286.067352,99.753670 295.888794,93.221451 305.948425,87.050629 
	C308.688477,85.369812 309.440247,83.943611 307.091522,81.253357 
	C293.266815,65.418358 278.059509,51.095276 261.213959,38.498993 
	C258.013458,36.105804 255.402130,36.179569 252.390091,38.748791 
	C248.356705,42.189213 244.001297,45.250366 239.938278,48.658115 
	C228.458847,58.286186 217.813492,68.747650 208.017899,80.117195 
	C204.665100,84.008705 205.803970,85.927719 209.543457,88.116310 
	C224.518524,96.880684 238.240234,107.321754 250.701675,119.397354 
	C253.791992,122.391968 257.563354,122.382019 260.896057,120.914314 
	C263.497864,119.768486 265.428711,117.099113 268.181793,114.621300 
z"/>
</svg>